# xmcd CD database file
#
# Track frame offsets:
#	187
#	21672
#	43582
#	65045
#
# Disc length: 1158 seconds
#
# Revision: 1
# Processed by: cddbd v1.5.2PL0 Copyright (c) Steve Scherf et al.
# Submitted via: CDex 1.51
#
DISCID=37048404
DTITLE=小松みどり - 雨模様
DYEAR=1990
DGENRE=JPop
TTITLE0=雨模様
TTITLE1=愛はわがまま
TTITLE2=雨模様(オリジナル・カラオケ)
TTITLE3=愛はわがまま(オリジナル・カラオケ)
EXTD=YEAR: 1990
EXTT0=
EXTT1=
EXTT2=
EXTT3=
PLAYORDER=
